{
	"asset":{
		"generator":"Khronos glTF Blender I/O v4.0.44",
		"version":"2.0"
	},
	"extensionsUsed":[
		"KHR_materials_emissive_strength"
	],
	"scene":0,
	"scenes":[
		{
			"name":"Scene",
			"nodes":[
				0
			]
		}
	],
	"nodes":[
		{
			"mesh":0,
			"name":"Sphere.002",
			"scale":[
				1,
				1.1887843608856201,
				1.5693215131759644
			],
			"translation":[
				0,
				0.18752127885818481,
				0.10982418060302734
			]
		}
	],
	"materials":[
		{
			"doubleSided":true,
			"emissiveFactor":[
				1,
				1,
				1
			],
			"extensions":{
				"KHR_materials_emissive_strength":{
					"emissiveStrength":22.599998474121094
				}
			},
			"name":"eyes",
			"pbrMetallicRoughness":{
				"baseColorFactor":[
					0.8008519411087036,
					0.7863705158233643,
					0.7438482046127319,
					1
				],
				"metallicFactor":0,
				"roughnessFactor":0.027272731065750122
			}
		},
		{
			"doubleSided":true,
			"name":"body",
			"pbrMetallicRoughness":{
				"baseColorFactor":[
					0.04252157360315323,
					0.8003851175308228,
					0.04280175641179085,
					1
				],
				"metallicFactor":0,
				"roughnessFactor":0.5
			}
		}
	],
	"meshes":[
		{
			"name":"Sphere.002",
			"primitives":[
				{
					"attributes":{
						"POSITION":0,
						"NORMAL":1,
						"TEXCOORD_0":2
					},
					"indices":3,
					"material":0
				},
				{
					"attributes":{
						"POSITION":4,
						"NORMAL":5,
						"TEXCOORD_0":6
					},
					"indices":7,
					"material":1
				}
			]
		}
	],
	"accessors":[
		{
			"bufferView":0,
			"componentType":5126,
			"count":116,
			"max":[
				1.250846028327942,
				3.310059070587158,
				0.5840784907341003
			],
			"min":[
				1.0313761234283447,
				3.0971646308898926,
				-0.5254459381103516
			],
			"type":"VEC3"
		},
		{
			"bufferView":1,
			"componentType":5126,
			"count":116,
			"type":"VEC3"
		},
		{
			"bufferView":2,
			"componentType":5126,
			"count":116,
			"type":"VEC2"
		},
		{
			"bufferView":3,
			"componentType":5123,
			"count":474,
			"type":"SCALAR"
		},
		{
			"bufferView":4,
			"componentType":5126,
			"count":11219,
			"max":[
				1.5313572883605957,
				3.939182758331299,
				1.5349836349487305
			],
			"min":[
				-1.5313572883605957,
				-0.06026124954223633,
				-1.4860789775848389
			],
			"type":"VEC3"
		},
		{
			"bufferView":5,
			"componentType":5126,
			"count":11219,
			"type":"VEC3"
		},
		{
			"bufferView":6,
			"componentType":5126,
			"count":11219,
			"type":"VEC2"
		},
		{
			"bufferView":7,
			"componentType":5123,
			"count":39288,
			"type":"SCALAR"
		}
	],
	"bufferViews":[
		{
			"buffer":0,
			"byteLength":1392,
			"byteOffset":0,
			"target":34962
		},
		{
			"buffer":0,
			"byteLength":1392,
			"byteOffset":1392,
			"target":34962
		},
		{
			"buffer":0,
			"byteLength":928,
			"byteOffset":2784,
			"target":34962
		},
		{
			"buffer":0,
			"byteLength":948,
			"byteOffset":3712,
			"target":34963
		},
		{
			"buffer":0,
			"byteLength":134628,
			"byteOffset":4660,
			"target":34962
		},
		{
			"buffer":0,
			"byteLength":134628,
			"byteOffset":139288,
			"target":34962
		},
		{
			"buffer":0,
			"byteLength":89752,
			"byteOffset":273916,
			"target":34962
		},
		{
			"buffer":0,
			"byteLength":78576,
			"byteOffset":363668,
			"target":34963
		}
	],
	"buffers":[
		{
			"byteLength":442244,
			"uri":"Android.bin"
		}
	]
}
