{
	"asset":{
		"generator":"Khronos glTF Blender I/O v4.0.44",
		"version":"2.0"
	},
	"scene":0,
	"scenes":[
		{
			"name":"Scene",
			"nodes":[
				0
			]
		}
	],
	"nodes":[
		{
			"mesh":0,
			"name":"baked jeans",
			"rotation":[
				0.7071068286895752,
				0,
				0,
				0.7071068286895752
			],
			"scale":[
				1.1796375513076782,
				1.1482852697372437,
				0.9991708993911743
			]
		}
	],
	"materials":[
		{
			"doubleSided":true,
			"name":"Material.001",
			"pbrMetallicRoughness":{
				"baseColorFactor":[
					0,
					0,
					0,
					1
				],
				"metallicFactor":0
			}
		},
		{
			"doubleSided":true,
			"name":"Skin",
			"pbrMetallicRoughness":{
				"baseColorFactor":[
					0.617982804775238,
					0.36139580607414246,
					0.32095086574554443,
					1
				],
				"metallicFactor":0,
				"roughnessFactor":0.44090908765792847
			}
		},
		{
			"doubleSided":true,
			"name":"Material",
			"pbrMetallicRoughness":{
				"metallicFactor":0,
				"roughnessFactor":0.8700787425041199
			}
		}
	],
	"meshes":[
		{
			"name":"FinalBaseMesh.003",
			"primitives":[
				{
					"attributes":{
						"POSITION":0,
						"NORMAL":1,
						"TEXCOORD_0":2
					},
					"indices":3,
					"material":0
				},
				{
					"attributes":{
						"POSITION":4,
						"NORMAL":5,
						"TEXCOORD_0":6
					},
					"indices":7,
					"material":1
				},
				{
					"attributes":{
						"POSITION":8,
						"NORMAL":9,
						"TEXCOORD_0":10
					},
					"indices":11,
					"material":2
				}
			]
		}
	],
	"accessors":[
		{
			"bufferView":0,
			"componentType":5126,
			"count":17401,
			"max":[
				2.140812397003174,
				1.2787315845489502,
				-1.6311254501342773
			],
			"min":[
				-2.1397595405578613,
				-1.5703067779541016,
				-12.375253677368164
			],
			"type":"VEC3"
		},
		{
			"bufferView":1,
			"componentType":5126,
			"count":17401,
			"type":"VEC3"
		},
		{
			"bufferView":2,
			"componentType":5126,
			"count":17401,
			"type":"VEC2"
		},
		{
			"bufferView":3,
			"componentType":5123,
			"count":90780,
			"type":"SCALAR"
		},
		{
			"bufferView":4,
			"componentType":5126,
			"count":29095,
			"max":[
				4.952792644500732,
				1.6694457530975342,
				0.05664753168821335
			],
			"min":[
				-4.952792644500732,
				-1.6137975454330444,
				-20.70125961303711
			],
			"type":"VEC3"
		},
		{
			"bufferView":5,
			"componentType":5126,
			"count":29095,
			"type":"VEC3"
		},
		{
			"bufferView":6,
			"componentType":5126,
			"count":29095,
			"type":"VEC2"
		},
		{
			"bufferView":7,
			"componentType":5123,
			"count":146754,
			"type":"SCALAR"
		},
		{
			"bufferView":8,
			"componentType":5126,
			"count":14904,
			"max":[
				4.037386417388916,
				1.4783093929290771,
				-10.71102523803711
			],
			"min":[
				-4.0315704345703125,
				-2.071096181869507,
				-17.989849090576172
			],
			"type":"VEC3"
		},
		{
			"bufferView":9,
			"componentType":5126,
			"count":14904,
			"type":"VEC3"
		},
		{
			"bufferView":10,
			"componentType":5126,
			"count":14904,
			"type":"VEC2"
		},
		{
			"bufferView":11,
			"componentType":5123,
			"count":80544,
			"type":"SCALAR"
		}
	],
	"bufferViews":[
		{
			"buffer":0,
			"byteLength":208812,
			"byteOffset":0,
			"target":34962
		},
		{
			"buffer":0,
			"byteLength":208812,
			"byteOffset":208812,
			"target":34962
		},
		{
			"buffer":0,
			"byteLength":139208,
			"byteOffset":417624,
			"target":34962
		},
		{
			"buffer":0,
			"byteLength":181560,
			"byteOffset":556832,
			"target":34963
		},
		{
			"buffer":0,
			"byteLength":349140,
			"byteOffset":738392,
			"target":34962
		},
		{
			"buffer":0,
			"byteLength":349140,
			"byteOffset":1087532,
			"target":34962
		},
		{
			"buffer":0,
			"byteLength":232760,
			"byteOffset":1436672,
			"target":34962
		},
		{
			"buffer":0,
			"byteLength":293508,
			"byteOffset":1669432,
			"target":34963
		},
		{
			"buffer":0,
			"byteLength":178848,
			"byteOffset":1962940,
			"target":34962
		},
		{
			"buffer":0,
			"byteLength":178848,
			"byteOffset":2141788,
			"target":34962
		},
		{
			"buffer":0,
			"byteLength":119232,
			"byteOffset":2320636,
			"target":34962
		},
		{
			"buffer":0,
			"byteLength":161088,
			"byteOffset":2439868,
			"target":34963
		}
	],
	"buffers":[
		{
			"byteLength":2600956,
			"uri":"human.bin"
		}
	]
}
